<?xml version="1.0" encoding="utf-8"?>
<?xml-stylesheet type="text/xsl" href="rss1.xsl"?>
<rss version="2.0" xmlns:atom="http://www.w3.org/2005/Atom" xmlns:content="http://purl.org/rss/1.0/modules/content/" xmlns:dc="http://purl.org/dc/elements/1.1/" xmlns:media="http://search.yahoo.com/mrss/">
<channel>
 <title>Getty</title>
 <link>http://www.gettyimg.com/</link>
 <atom:link href="http://www.gettyimg.com/" rel="self" type="application/rss+xml" />

 
                <item>
                <title><![CDATA[【Singles (lossless)】FLAC - Barbie: This is ME - Official single  Raw From the Studio FLAC audio bitstream data, 24 bit, surround 5.1 DD, 44.1 kHz,3829KBPS]]></title>
                <link><![CDATA[https://sharemania.us/threads/barbie-this-is-me-official-single-raw-from-the-studio-flac-audio-bitstream-data-24-bit-surround-5-1-dd-44-1-khz-3829kbps.230547/]]></link>
                <description><![CDATA[<article>
<blockquote class="messageText SelectQuoteContainer ugc baseHtml">
<b>Hello everybody hope you're doing very well <img src="styles/default/xenforo/smilies/red_heart-48.png" class="mceSmilie" alt=":love:" title="hearts    :love:"></b><br>
<div style="padding-left: 30px"><div style="padding-left: 30px"><div style="padding-left: 30px"><div style="padding-left: 30px"><div style="padding-left: 30px"><div style="padding-left: 30px"><div style="padding-left: 30px"><div style="padding-left: 30px"><div style="padding-left: 30px"><div style="padding-left: 30px"><div style="padding-left: 30px"><br>​</div></div></div></div></div></div></div></div></div></div><b>Today i'll be shearing with you The official High Quallity Extracted single album of this is me song.<br>
Quality informations:<br>
FLAC audio bitstream data, 24 bit, surround 5.1 DD, 44.1 kHz, 3829KBPS<br>
This single has:<br>
<ol>
<li>This is me</li>
<li>This is me - Studio Instrmental </li>
</ol>official single cover:<br>
<img src="https://i.imgur.com/NDESRqh.jpg" class="bbCodeImage LbImage" alt="[​IMG]" data-url="https://i.imgur.com/NDESRqh.jpg" style=""><br>
the link:<br>
<div class="bbCodeBlock bbCodeVfcHH HiddenContent">
<div class="attribution type">Hidden Content:</div>
<blockquote>You must reply before you can see the hidden data contained here.</blockquote>
</div></b>​</div>
<div class="messageTextEndMarker">&nbsp;</div>
</blockquote>
</article>]]></description>
                <author><![CDATA[aziz2563]]></author>
                </item>

                
                <item>
                <title><![CDATA[【HD Live Performances】WEB-RiP - Dua.Lipa.Live.at.Glastonbury.2010.1080p.AMZN.WEB-DL.DDP2.0.H.264-mariellisaa]]></title>
                <link><![CDATA[https://sharemania.us/threads/dua-lipa-live-at-glastonbury-2010-1080p-amzn-web-dl-ddp2-0-h-264-mariellisaa.230548/]]></link>
                <description><![CDATA[<article>
<blockquote class="messageText SelectQuoteContainer ugc baseHtml">
<div style="text-align: left"><span style="font-size: 15px"><img src="https://i.imgur.com/VabbDbs.jpg" class="bbCodeImage LbImage" alt="[​IMG]" data-url="https://i.imgur.com/VabbDbs.jpg" style=""> </span><br>
<span style="font-family: 'Times New Roman'"><span style="font-size: 15px"><img src="https://i.imgur.com/d3rVaod.jpg" class="bbCodeImage LbImage" alt="[​IMG]" data-url="https://i.imgur.com/d3rVaod.jpg" style=""> </span></span>​</div><div style="text-align: center"><span style="font-family: 'Times New Roman'"><span style="font-size: 15px"><br>
</span></span>​</div>
<div class="ToggleTriggerAnchor bbCodeSpoilerContainer">
<button type="button" class="button bbCodeSpoilerButton ToggleTrigger Tooltip JsOnly" data-target="> .SpoilerTarget"><span>Spoiler: <span class="SpoilerTitle">MediaInfo</span></span></button>
<div class="SpoilerTarget bbCodeSpoilerText"><span style="font-family: 'Times New Roman'"><span style="font-size: 15px">General<br>
Complete name : D:\Dua.Lipa.Live.at.Glastonbury.2010.1080p.AMZN.WEB-DL.DDP2.0.H.264-mariellisaa.mp4<br>
Format : MPEG-4<br>
Format profile : Base Media<br>
Codec ID : isom (isom/dby1/iso2/avc1/mp41)<br>
File size : 3.11 GiB<br>
Duration : 48 min 48 s<br>
Overall bit rate mode : Variable<br>
Overall bit rate : 9 135 kb/s<br>
Collection : Dua Lipa - Live at Glastonbury<br>
Track name : Dua Lipa - Live at Glastonbury<br>
Genre : International;Clips musicaux et Concerts<br>
Description : Le Glastonbury Festival of Contemporary Performing Arts est le deuxième plus grand festival en plein air du monde.Principalement connu pour ses performances musicales, il accueille aussi des représentations de danse, de comédie, de théâtre et de cirque.<br>
Recorded date : 2017<br>
Writing application : Lavf60.3.100<br>
Cover : Yes<br>
<br>
Video<br>
ID : 1<br>
Format : AVC<br>
Format/Info : Advanced Video Codec<br>
Format profile : High@L4<br>
Format settings : CABAC / 4 Ref Frames<br>
Format settings, CABAC : Yes<br>
Format settings, Reference frames : 4 frames<br>
Codec ID : avc1<br>
Codec ID/Info : Advanced Video Coding<br>
Duration : 48 min 48 s<br>
Duration_LastFrame : -30 ms<br>
Bit rate mode : Constant<br>
Bit rate : 8 904 kb/s<br>
Nominal bit rate : 10 000 kb/s<br>
Width : 1 920 pixels<br>
Height : 1 080 pixels<br>
Display aspect ratio : 16:9<br>
Frame rate mode : Constant<br>
Frame rate : 25.000 FPS<br>
Color space : YUV<br>
Chroma subsampling : 4:2:0<br>
Bit depth : 8 bits<br>
Scan type : Progressive<br>
Bits/(Pixel*Frame) : 0.172<br>
Stream size : 3.04 GiB (97%)<br>
Color range : Limited<br>
Color primaries : BT.709<br>
Transfer characteristics : BT.709<br>
Matrix coefficients : BT.709<br>
Codec configuration box : avcC<br>
<br>
Audio<br>
ID : 3<br>
Format : E-AC-3<br>
Format/Info : Enhanced AC-3<br>
Commercial name : Dolby Digital Plus<br>
Codec ID : ec-3<br>
Duration : 48 min 48 s<br>
Bit rate mode : Constant<br>
Bit rate : 224 kb/s<br>
Channel(s) : 2 channels<br>
Channel layout : L R<br>
Sampling rate : 48.0 kHz<br>
Frame rate : 31.250 FPS (1536 SPF)<br>
Compression mode : Lossy<br>
Stream size : 78.2 MiB (2%)<br>
Language : English<br>
Service kind : Complete Main<br>
Default : Yes<br>
Alternate group : 1<br>
<br>
Text<br>
ID : 4<br>
Format : Timed Text<br>
Muxing mode : sbtl<br>
Codec ID : tx3g<br>
Duration : 48 min 42 s<br>
Bit rate mode : Variable<br>
Bit rate : 78 b/s<br>
Frame rate : 0.546 FPS<br>
Stream size : 27.9 KiB (0%)<br>
Title : English [CC]<br>
Language : English<br>
Default : Yes<br>
Forced : No<br>
Alternate group : 3<br>
<br>
<br>
</span></span></div>
</div><br>
<div style="text-align: center"><span style="font-family: 'Times New Roman'"><span style="font-size: 15px"><br>
<div class="bbCodeBlock bbCodeVfcHH HiddenContent">
<div class="attribution type">Hidden Content:</div>
<blockquote>You must either reply or click 'Like' to see the hidden information contained here.</blockquote>
</div></span></span>​</div><br>
<div style="text-align: center"><span style="font-family: 'Times New Roman'"><span style="font-size: 15px"><br>
Ripped: by me</span></span>​</div>
<div class="messageTextEndMarker">&nbsp;</div>
</blockquote>
</article>]]></description>
                <author><![CDATA[mariellisaa]]></author>
                </item>

                </channel></rss>